# xmcd
#
# Track frame offsets: 
#        150
#        33345
#        51567
#        76272
#        99940
#        122782
#        143617
#        165340
#        196907
#        217457
#
# Disc length: 3102 seconds
#
# Revision: 0
# Processed by: cddbd v1.5.2PL0 Copyright (c) Steve Scherf et al.
# Submitted via: ExactAudioCopy v0.95b4
#
DISCID=870c1c0a
DTITLE=Champion Jack Dupree - After All
DYEAR=1994
DGENRE=Blues
TTITLE0=After All
TTITLE1=Alberta
TTITLE2=I Wonder Who
TTITLE3=Down In New Orleans
TTITLE4=Talk To Me Baby
TTITLE5=Drive 'Em Down Special
TTITLE6=Stumblin' Block
TTITLE7=Reetah May
TTITLE8=I Don't Know
TTITLE9=Who Throwed The Gin In The Well
EXTD=
EXTT0=
EXTT1=
EXTT2=
EXTT3=
EXTT4=
EXTT5=
EXTT6=
EXTT7=
EXTT8=
EXTT9=
PLAYORDER=
